<svg xmlns="http://www.w3.org/2000/svg" width="80" height="80" viewBox="0 0 40 40"><path d="M18.9 39.97a19.823 19.823 0 01-10.8-3.9 16.192 16.192 0 01-2.3-1.94A20.335 20.335 0 012 28.69a19.723 19.723 0 010-17.41 20.285 20.285 0 013.8-5.43 20.146 20.146 0 0122.9-3.88 18.135 18.135 0 015.4 3.88 18.6 18.6 0 013.9 5.43 19.723 19.723 0 010 17.41 20.525 20.525 0 01-8.1 8.67 19.935 19.935 0 01-11 2.61zm3-5.07a14.605 14.605 0 003-.72 14.894 14.894 0 009.8-11.39 13.217 13.217 0 000-5.6A14.854 14.854 0 0022.8 5.23a16.453 16.453 0 00-5.6 0 15.094 15.094 0 00-12 11.96 19.7 19.7 0 000 5.6 15.106 15.106 0 0013 12.12 11.291 11.291 0 002 .08 14.445 14.445 0 001.7-.09zm-2.3-4.41a2.561 2.561 0 01-2-2.07v-.74a2.515 2.515 0 012.1-2.09 1.652 1.652 0 01.7 0 2.515 2.515 0 012.1 2.09.95.95 0 010 .74 2.549 2.549 0 01-2 2.07 1.955 1.955 0 01-.9 0zm-2-13.71v-6.26h5v12.52h-5v-6.26z" fill="#eb2f34" fill-rule="evenodd"/></svg>